# xmcd
#
# Track frame offsets:
# 150
# 29260
# 56888
# 78142
# 100238
# 131125
# 166839
# 179456
# 199583
# 223617
#
# Disc length: 3221 seconds
#
#
# Revision: 0
# Processed by: cddbd v1.5.1PL2 Copyright (c) Steve Scherf et al.
# Submitted via: FreeRIP 2.944 
#
DISCID=860c930a
DTITLE=Rory Gallagher - Blueprint
DYEAR=1973
DGENRE=Blues
TTITLE0=Walk On Hot Coals
TTITLE1=Daughter Of The Evergldes
TTITLE2=Banker's Blues
TTITLE3=Hand Off
TTITLE4=Race The Breeze
TTITLE5=Seventh Son Of Seventh Son
TTITLE6=Unmilitary Two-Step
TTITLE7=If I Had A Reason
TTITLE8=Stompin' Ground - alt version 10 (bonus track)
TTITLE9=Treat Her Right (bonus track)
EXTD=
EXTT0=
EXTT1=
EXTT2=
EXTT3=
EXTT4=
EXTT5=
EXTT6=
EXTT7=
EXTT8=
EXTT9=
PLAYORDER=
